[Header]
FileType HTR
DataType HTRS
FileVersion 1
NumSegments 64
NumFrames 4
DataFrameRate 30
EulerRotationOrder ZYX
CalibrationUnits mm
RotationUnits Degrees
GlobalAxisofGravity Y
BoneLengthAxis Y
ScaleFactor 1.0
[SegmentNames&Hierarchy]
Hips	GLOBAL
Spine	Hips
Spine1	Spine
Spine2	Spine1
Neck	Spine2
Head	Neck
LeftEye	Head
RightEye	Head
LeftShoulder	Spine2
LeftArm	LeftShoulder
LeftForeArm	LeftArm
LeftHand	LeftForeArm
LeftHandThumb1	LeftHand
LeftHandThumb2	LeftHandThumb1
LeftHandThumb3	LeftHandThumb2
LeftHandThumb4	LeftHandThumb3
LeftHandIndex1	LeftHand
LeftHandIndex2	LeftHandIndex1
LeftHandIndex3	LeftHandIndex2
LeftHandIndex4	LeftHandIndex3
LeftHandMiddle1	LeftHand
LeftHandMiddle2	LeftHandMiddle1
LeftHandMiddle3	LeftHandMiddle2
LeftHandMiddle4	LeftHandMiddle3
LeftHandRing1	LeftHand
LeftHandRing2	LeftHandRing1
LeftHandRing3	LeftHandRing2
LeftHandRing4	LeftHandRing3
LeftHandPinky1	LeftHand
LeftHandPinky2	LeftHandPinky1
LeftHandPinky3	LeftHandPinky2
LeftHandPinky4	LeftHandPinky3
RightShoulder	Spine2
RightArm	RightShoulder
RightForeArm	RightArm
RightHand	RightForeArm
RightHandPinky1	RightHand
RightHandPinky2	RightHandPinky1
RightHandPinky3	RightHandPinky2
RightHandPinky4	RightHandPinky3
RightHandRing1	RightHand
RightHandRing2	RightHandRing1
RightHandRing3	RightHandRing2
RightHandRing4	RightHandRing3
RightHandMiddle1	RightHand
RightHandMiddle2	RightHandMiddle1
RightHandMiddle3	RightHandMiddle2
RightHandMiddle4	RightHandMiddle3
RightHandIndex1	RightHand
RightHandIndex2	RightHandIndex1
RightHandIndex3	RightHandIndex2
RightHandIndex4	RightHandIndex3
RightHandThumb1	RightHand
RightHandThumb2	RightHandThumb1
RightHandThumb3	RightHandThumb2
RightHandThumb4	RightHandThumb3
LeftUpLeg	Hips
LeftLeg	LeftUpLeg
LeftFoot	LeftLeg
LeftToeBase	LeftFoot
RightUpLeg	Hips
RightLeg	RightUpLeg
RightFoot	RightLeg
RightToeBase	RightFoot
[BasePosition]
Hips	0	0	0	0	0	0	1
Spine	0	0	0	0	0	0	1
Spine1	0	0	0	0	0	0	1
Spine2	0	0	0	0	0	0	1
Neck	0	0	0	0	0	0	1
Head	0	0	0	0	0	0	1
LeftEye	0	0	0	0	0	0	1
RightEye	0	0	0	0	0	0	1
LeftShoulder	0	0	0	0	0	0	1
LeftArm	0	0	0	0	0	0	1
LeftForeArm	0	0	0	0	0	0	1
LeftHand	0	0	0	0	0	0	1
LeftHandThumb1	0	0	0	0	0	0	1
LeftHandThumb2	0	0	0	0	0	0	1
LeftHandThumb3	0	0	0	0	0	0	1
LeftHandThumb4	0	0	0	0	0	0	1
LeftHandIndex1	0	0	0	0	0	0	1
LeftHandIndex2	0	0	0	0	0	0	1
LeftHandIndex3	0	0	0	0	0	0	1
LeftHandIndex4	0	0	0	0	0	0	1
LeftHandMiddle1	0	0	0	0	0	0	1
LeftHandMiddle2	0	0	0	0	0	0	1
LeftHandMiddle3	0	0	0	0	0	0	1
LeftHandMiddle4	0	0	0	0	0	0	1
LeftHandRing1	0	0	0	0	0	0	1
LeftHandRing2	0	0	0	0	0	0	1
LeftHandRing3	0	0	0	0	0	0	1
LeftHandRing4	0	0	0	0	0	0	1
LeftHandPinky1	0	0	0	0	0	0	1
LeftHandPinky2	0	0	0	0	0	0	1
LeftHandPinky3	0	0	0	0	0	0	1
LeftHandPinky4	0	0	0	0	0	0	1
RightShoulder	0	0	0	0	0	0	1
RightArm	0	0	0	0	0	0	1
RightForeArm	0	0	0	0	0	0	1
RightHand	0	0	0	0	0	0	1
RightHandPinky1	0	0	0	0	0	0	1
RightHandPinky2	0	0	0	0	0	0	1
RightHandPinky3	0	0	0	0	0	0	1
RightHandPinky4	0	0	0	0	0	0	1
RightHandRing1	0	0	0	0	0	0	1
RightHandRing2	0	0	0	0	0	0	1
RightHandRing3	0	0	0	0	0	0	1
RightHandRing4	0	0	0	0	0	0	1
RightHandMiddle1	0	0	0	0	0	0	1
RightHandMiddle2	0	0	0	0	0	0	1
RightHandMiddle3	0	0	0	0	0	0	1
RightHandMiddle4	0	0	0	0	0	0	1
RightHandIndex1	0	0	0	0	0	0	1
RightHandIndex2	0	0	0	0	0	0	1
RightHandIndex3	0	0	0	0	0	0	1
RightHandIndex4	0	0	0	0	0	0	1
RightHandThumb1	0	0	0	0	0	0	1
RightHandThumb2	0	0	0	0	0	0	1
RightHandThumb3	0	0	0	0	0	0	1
RightHandThumb4	0	0	0	0	0	0	1
LeftUpLeg	0	0	0	0	0	0	1
LeftLeg	0	0	0	0	0	0	1
LeftFoot	0	0	0	0	0	0	1
LeftToeBase	0	0	0	0	0	0	1
RightUpLeg	0	0	0	0	0	0	1
RightLeg	0	0	0	0	0	0	1
RightFoot	0	0	0	0	0	0	1
RightToeBase	0	0	0	0	0	0	1
[Hips]
126	-14.75710297	1018.377686	11.98985195	1.99095726	-3.152277946	-6.796621323	1.0
127	-14.45376873	1019.313293	13.08037853	1.51807034	-3.479206324	-6.460909843	1.0
128	-14.09230423	1020.255188	14.20874023	1.0401963	-3.833621979	-6.115788937	1.0
129	-13.69373226	1021.201233	15.35188866	0.5616102219	-4.204122543	-5.766310692	1.0
[Spine]
126	0	101.8159943	1.315000057	4.299125671	1.64278543	2.144457102	1.0
127	0	101.8159943	1.315000057	4.200471878	1.623974442	2.193877459	1.0
128	0	101.8159943	1.315000057	4.099304676	1.602392554	2.245187998	1.0
129	0	101.8159943	1.315000057	3.997527599	1.579016209	2.297941446	1.0
[Spine1]
126	0	100.8349991	-10.00800037	2.0937047	0.6739364862	0.6562121511	1.0
127	0	100.8349991	-10.00800037	1.986929059	0.6503977776	0.7317122817	1.0
128	0	100.8349991	-10.00800037	1.8778373	0.6219726205	0.8101376891	1.0
129	0	100.8349991	-10.00800037	1.768349648	0.5903585553	0.8904148936	1.0
[Spine2]
126	0	91	-13.73399925	2.072228909	0.7083500028	0.6681360602	1.0
127	0	91	-13.73399925	1.965235353	0.6831310391	0.7433578372	1.0
128	0	91	-13.73399925	1.855917096	0.6530008912	0.8214749694	1.0
129	0	91	-13.73399925	1.746194124	0.6196619272	0.9014273286	1.0
[Neck]
126	0	166.7169952	-25.16200066	6.875639915	0.7722851038	-1.999413013	1.0
127	0	166.7169952	-25.16200066	6.946846485	0.7592635751	-1.901792169	1.0
128	0	166.7169952	-25.16200066	7.012733459	0.7506253719	-1.810642242	1.0
129	0	166.7169952	-25.16200066	7.073635578	0.7442147732	-1.722890019	1.0
[Head]
126	0	96.17900085	16.84999847	-14.81453609	3.126796007	-1.700663328	1.0
127	0	96.17900085	16.84999847	-13.80221272	3.19605732	-1.988322258	1.0
128	0	96.17900085	16.84999847	-12.77366066	3.32316637	-2.276962042	1.0
129	0	96.17900085	16.84999847	-11.74570751	3.484226704	-2.562339306	1.0
[LeftEye]
126	30.6760006	64.09500122	92.83599854	0	0	0	1.0
127	30.6760006	64.09500122	92.83599854	0	0	0	1.0
128	30.6760006	64.09500122	92.83599854	0	0	0	1.0
129	30.6760006	64.09500122	92.83599854	0	0	0	1.0
[RightEye]
126	-30.6760006	64.09500122	92.83499908	0	0	0	1.0
127	-30.6760006	64.09500122	92.83499908	0	0	0	1.0
128	-30.6760006	64.09500122	92.83499908	0	0	0	1.0
129	-30.6760006	64.09500122	92.83499908	0	0	0	1.0
[LeftShoulder]
126	45.70400238	109.4599991	-26.28000069	5.185780525	-16.39399719	-15.52405548	1.0
127	45.70400238	109.4599991	-26.28000069	5.135436535	-16.31632233	-15.3435297	1.0
128	45.70400238	109.4599991	-26.28000069	5.082444191	-16.23838806	-15.14672852	1.0
129	45.70400238	109.4599991	-26.28000069	5.028321266	-16.16217613	-14.9399538	1.0
[LeftArm]
126	105.923996	-5.24600029	-22.32099915	14.63049412	-6.882666588	-62.47454453	1.0
127	105.923996	-5.24600029	-22.32099915	14.62898827	-6.268695354	-63.081604	1.0
128	105.923996	-5.24600029	-22.32099915	14.70137691	-5.646478176	-63.76411819	1.0
129	105.923996	-5.24600029	-22.32099915	14.82575035	-5.024176598	-64.49145508	1.0
[LeftForeArm]
126	278.414978	-0.0009999999311	0	3.819988251e-06	-0.1967562884	-0.0002224423661	1.0
127	278.414978	-0.0009999999311	0	3.184220759e-06	-0.1417249292	-0.0002197452559	1.0
128	278.414978	-0.0009999999311	0	2.264326668e-06	-0.1403361112	-0.0002158589486	1.0
129	278.414978	-0.0009999999311	0	1.223211598e-06	-0.1751338691	-0.000211388804	1.0
[LeftHand]
126	283.2879944	0	0	-32.15699768	-2.87932086	-0.1400343925	1.0
127	283.2879944	0	0	-32.21114731	-3.189388514	-0.7277328372	1.0
128	283.2879944	0	0	-32.32275009	-3.480802774	-1.26331985	1.0
129	283.2879944	0	0	-32.47210693	-3.758245707	-1.758508563	1.0
[LeftHandThumb1]
126	24.6609993	-15.75	26.8239994	-0.8711922765	2.373594522	4.592522144	1.0
127	24.6609993	-15.75	26.8239994	-0.811642468	2.345759153	4.497534275	1.0
128	24.6609993	-15.75	26.8239994	-0.8430640697	2.309423923	4.464819908	1.0
129	24.6609993	-15.75	26.8239994	-0.9312096238	2.267781496	4.470921993	1.0
[LeftHandThumb2]
126	32.29800034	-18.64699936	18.64699936	19.88923454	17.03432655	18.91486359	1.0
127	32.29800034	-18.64699936	18.64699936	19.87211037	16.9004879	18.78931046	1.0
128	32.29800034	-18.64699936	18.64699936	19.84820175	16.79859352	18.61783028	1.0
129	32.29800034	-18.64699936	18.64699936	19.81975174	16.71688843	18.41741371	1.0
[LeftHandThumb3]
126	26.52600098	-15.31499958	15.31499958	-13.11049271	4.87037611	10.24787045	1.0
127	26.52600098	-15.31499958	15.31499958	-13.09008408	4.848203182	10.32935238	1.0
128	26.52600098	-15.31499958	15.31499958	-13.05421734	4.804735184	10.42021847	1.0
129	26.52600098	-15.31499958	15.31499958	-13.00859547	4.748022556	10.51742172	1.0
[LeftHandThumb4]
126	19.54599953	-11.28499985	11.28499985	0	0	0	1.0
127	19.54599953	-11.28499985	11.28499985	0	0	0	1.0
128	19.54599953	-11.28499985	11.28499985	0	0	0	1.0
129	19.54599953	-11.28499985	11.28499985	0	0	0	1.0
[LeftHandIndex1]
126	91.09299469	-5.170999527	22.60099792	0.5311073661	-0.62280339	-9.789738655	1.0
127	91.09299469	-5.170999527	22.60099792	0.535587132	-0.6412631273	-9.610154152	1.0
128	91.09299469	-5.170999527	22.60099792	0.5360249877	-0.662433207	-9.415131569	1.0
129	91.09299469	-5.170999527	22.60099792	0.5344842672	-0.6855571866	-9.206989288	1.0
[LeftHandIndex2]
126	36.76399994	0	0	-0.2639056742	1.736216784	-17.28443909	1.0
127	36.76399994	0	0	-0.2642214894	1.73723352	-17.29488373	1.0
128	36.76399994	0	0	-0.2644598782	1.737999439	-17.30275726	1.0
129	36.76399994	0	0	-0.2646673322	1.738664865	-17.30959511	1.0
[LeftHandIndex3]
126	28.83100128	0	0	-0.05611078441	0.807951808	-7.945425987	1.0
127	28.83100128	0	0	-0.05625806376	0.8090078831	-7.955879688	1.0
128	28.83100128	0	0	-0.05636982992	0.8098054528	-7.963775635	1.0
129	28.83100128	0	0	-0.05646756291	0.8104994297	-7.970648289	1.0
[LeftHandIndex4]
126	23.92700005	0	0	0	0	0	1.0
127	23.92700005	0	0	0	0	0	1.0
128	23.92700005	0	0	0	0	0	1.0
129	23.92700005	0	0	0	0	0	1.0
[LeftHandMiddle1]
126	95.33399963	0	0	-1.048453808	2.818589211	-19.33340073	1.0
127	95.33399963	0	0	-1.028771758	2.801920414	-19.05975342	1.0
128	95.33399963	0	0	-1.007027149	2.7827847	-18.75712967	1.0
129	95.33399963	0	0	-0.9833996296	2.762601376	-18.42762375	1.0
[LeftHandMiddle2]
126	36.98199844	0	0	-0.2550834715	1.707633734	-16.99097252	1.0
127	36.98199844	0	0	-0.2562093139	1.711320281	-17.02878189	1.0
128	36.98199844	0	0	-0.2571536005	1.714396	-17.06033897	1.0
129	36.98199844	0	0	-0.2579597235	1.717009306	-17.08716393	1.0
[LeftHandMiddle3]
126	29.50900078	0	0	-0.2859887779	1.805641413	-17.99916649	1.0
127	29.50900078	0	0	-0.2871758342	1.809296012	-18.03687477	1.0
128	29.50900078	0	0	-0.2881704867	1.812342405	-18.06832314	1.0
129	29.50900078	0	0	-0.2890186012	1.814928651	-18.09503555	1.0
[LeftHandMiddle4]
126	28.3390007	0	0	0	0	0	1.0
127	28.3390007	0	0	0	0	0	1.0
128	28.3390007	0	0	0	0	0	1.0
129	28.3390007	0	0	0	0	0	1.0
[LeftHandRing1]
126	91.04499817	-0.4390000105	-18.65100098	-1.565375924	3.751820564	-25.99257851	1.0
127	91.04499817	-0.4390000105	-18.65100098	-1.551908135	3.75217247	-25.8269577	1.0
128	91.04499817	-0.4390000105	-18.65100098	-1.536453128	3.751851082	-25.63689995	1.0
129	91.04499817	-0.4390000105	-18.65100098	-1.519601822	3.751042366	-25.42960548	1.0
[LeftHandRing2]
126	31.54000092	0	0	-0.5476685166	2.468839645	-25.00115776	1.0
127	31.54000092	0	0	-0.5371799469	2.445759058	-24.75224876	1.0
128	31.54000092	0	0	-0.5259365439	2.420921564	-24.48457527	1.0
129	31.54000092	0	0	-0.5141752958	2.394859791	-24.20385742	1.0
[LeftHandRing3]
126	29.37700081	0	0	-0.424116075	2.184635639	-21.95845795	1.0
127	29.37700081	0	0	-0.4147703946	2.16076827	-21.70687485	1.0
128	29.37700081	0	0	-0.4047579765	2.135086536	-21.43632698	1.0
129	29.37700081	0	0	-0.3942890465	2.108140707	-21.15259361	1.0
[LeftHandRing4]
126	26.47500038	0	0	0	0	0	1.0
127	26.47500038	0	0	0	0	0	1.0
128	26.47500038	0	0	0	0	0	1.0
129	26.47500038	0	0	0	0	0	1.0
[LeftHandPinky1]
126	80.77799988	-4.887000084	-38.06099701	-2.423474312	5.206777096	-31.15897369	1.0
127	80.77799988	-4.887000084	-38.06099701	-2.344780445	5.214226246	-30.68696594	1.0
128	80.77799988	-4.887000084	-38.06099701	-2.283148527	5.216702461	-30.30358315	1.0
129	80.77799988	-4.887000084	-38.06099701	-2.231345654	5.216889858	-29.97458458	1.0
[LeftHandPinky2]
126	36	0	0	-0.3116450608	1.883609891	-18.80442619	1.0
127	36	0	0	-0.3068226874	1.869807005	-18.66094208	1.0
128	36	0	0	-0.3037625253	1.860693336	-18.56661606	1.0
129	36	0	0	-0.3018278778	1.85458076	-18.50374413	1.0
[LeftHandPinky3]
126	21.14200211	0	0	-0.2827485502	1.796556592	-17.90451431	1.0
127	21.14200211	0	0	-0.2781554461	1.782716751	-17.76142693	1.0
128	21.14200211	0	0	-0.2752522528	1.773599267	-17.66755486	1.0
129	21.14200211	0	0	-0.2734281123	1.767503262	-17.60516357	1.0
[LeftHandPinky4]
126	19.75699997	0	0	0	0	0	1.0
127	19.75699997	0	0	0	0	0	1.0
128	19.75699997	0	0	0	0	0	1.0
129	19.75699997	0	0	0	0	0	1.0
[RightShoulder]
126	-45.70000076	109.4620056	-26.28000069	5.82266283	17.87870598	13.48787975	1.0
127	-45.70000076	109.4620056	-26.28000069	5.746417046	17.45903587	13.75551033	1.0
128	-45.70000076	109.4620056	-26.28000069	5.662778854	16.99719048	14.05509281	1.0
129	-45.70000076	109.4620056	-26.28000069	5.575526237	16.51359367	14.37345695	1.0
[RightArm]
126	-105.9280014	-5.248000145	-22.32099915	30.86830711	5.164361477	59.42816925	1.0
127	-105.9280014	-5.248000145	-22.32099915	30.50019264	4.797910213	59.87403107	1.0
128	-105.9280014	-5.248000145	-22.32099915	29.99063301	4.43851757	60.46624756	1.0
129	-105.9280014	-5.248000145	-22.32099915	29.40612793	4.083716393	61.14616013	1.0
[RightForeArm]
126	-278.414978	0	0	-3.460329708e-06	9.208260536	1.758114195e-06	1.0
127	-278.414978	0	0	-3.521295412e-06	8.833917618	9.479336995e-07	1.0
128	-278.414978	0	0	-3.966743407e-06	8.414297104	-5.402909551e-07	1.0
129	-278.414978	0	0	-4.610680662e-06	7.971088886	-2.396887567e-06	1.0
[RightHand]
126	-283.2879944	0	0.0009999999311	-22.78066063	2.74406147	4.222512245	1.0
127	-283.2879944	0	0.0009999999311	-23.37764359	3.172063589	4.506912708	1.0
128	-283.2879944	0	0.0009999999311	-24.08685684	3.700992823	4.788659096	1.0
129	-283.2879944	0	0.0009999999311	-24.86618233	4.294490814	5.067137241	1.0
[RightHandPinky1]
126	-80.76699829	-4.885000229	-38.06000137	-2.071140528	-4.785970211	33.6047287	1.0
127	-80.76699829	-4.885000229	-38.06000137	-2.089553595	-4.841544151	33.89513779	1.0
128	-80.76699829	-4.885000229	-38.06000137	-2.119714022	-4.905225277	34.33579636	1.0
129	-80.76699829	-4.885000229	-38.06000137	-2.155952215	-4.972082615	34.85303497	1.0
[RightHandPinky2]
126	-36	0	0.0009999999311	-0.2331817448	-1.452370763	18.26194572	1.0
127	-36	0	0.0009999999311	-0.2325802594	-1.450563908	18.23842621	1.0
128	-36	0	0.0009999999311	-0.2322269529	-1.449496984	18.22454834	1.0
129	-36	0	0.0009999999311	-0.2319524884	-1.448657036	18.21363831	1.0
[RightHandPinky3]
126	-21.14200211	0	0	-0.2108717412	-1.382869363	17.34035301	1.0
127	-21.14200211	0	0	-0.2103691101	-1.381278396	17.3197403	1.0
128	-21.14200211	0	0	-0.2101042718	-1.380435944	17.30883598	1.0
129	-21.14200211	0	0	-0.2099136263	-1.379819036	17.30086708	1.0
[RightHandPinky4]
126	-19.75699997	0	0	0	0	0	1.0
127	-19.75699997	0	0	0	0	0	1.0
128	-19.75699997	0	0	0	0	0	1.0
129	-19.75699997	0	0	0	0	0	1.0
[RightHandRing1]
126	-91.03599548	-0.4390000105	-18.65100098	-1.569679499	-2.52671361	28.0147438	1.0
127	-91.03599548	-0.4390000105	-18.65100098	-1.554855347	-2.792333126	27.81196785	1.0
128	-91.03599548	-0.4390000105	-18.65100098	-1.543365598	-3.108565331	27.65282822	1.0
129	-91.03599548	-0.4390000105	-18.65100098	-1.532128334	-3.460045815	27.49526596	1.0
[RightHandRing2]
126	-31.54000092	0	0	-0.5246497393	-2.139774799	27.48043442	1.0
127	-31.54000092	0	0	-0.5029744506	-2.095328569	26.869133	1.0
128	-31.54000092	0	0	-0.4787814319	-2.045540333	26.18483734	1.0
129	-31.54000092	0	0	-0.4524959922	-1.990983009	25.43616486	1.0
[RightHandRing3]
126	-29.37700081	0	0	-0.4161683619	-1.917048216	24.41663933	1.0
127	-29.37700081	0	0	-0.3969726861	-1.871685147	23.80787659	1.0
128	-29.37700081	0	0	-0.3755624294	-1.820884824	23.12659264	1.0
129	-29.37700081	0	0	-0.3523267806	-1.765234828	22.38126945	1.0
[RightHandRing4]
126	-26.47500038	0	0	0	0	0	1.0
127	-26.47500038	0	0	0	0	0	1.0
128	-26.47500038	0	0	0	0	0	1.0
129	-26.47500038	0	0	0	0	0	1.0
[RightHandMiddle1]
126	-95.32500458	0	0	-1.01360321	-3.137325287	19.99184227	1.0
127	-95.32500458	0	0	-1.030990362	-3.108320236	20.25589752	1.0
128	-95.32500458	0	0	-1.055684328	-3.08728385	20.63019753	1.0
129	-95.32500458	0	0	-1.082479358	-3.067625999	21.03593445	1.0
[RightHandMiddle2]
126	-36.98199844	0	0	-0.2485370636	-1.498144388	18.83867836	1.0
127	-36.98199844	0	0	-0.2486033738	-1.498397708	18.84189415	1.0
128	-36.98199844	0	0	-0.2486065477	-1.498473406	18.84277916	1.0
129	-36.98199844	0	0	-0.2483182251	-1.497673273	18.83226013	1.0
[RightHandMiddle3]
126	-29.50900078	0	0	-0.2755984664	-1.577228427	19.84772873	1.0
127	-29.50900078	0	0	-0.275667727	-1.577474833	19.85090446	1.0
128	-29.50900078	0	0	-0.2756708562	-1.577544928	19.85176086	1.0
129	-29.50900078	0	0	-0.2753673494	-1.576745033	19.84122086	1.0
[RightHandMiddle4]
126	-28.3390007	0	0.0009999999311	0	0	0	1.0
127	-28.3390007	0	0.0009999999311	0	0	0	1.0
128	-28.3390007	0	0.0009999999311	0	0	0	1.0
129	-28.3390007	0	0.0009999999311	0	0	0	1.0
[RightHandIndex1]
126	-91.08300018	-5.167999744	22.60099792	0.4789734781	-0.6438539028	8.058086395	1.0
127	-91.08300018	-5.167999744	22.60099792	0.4407630861	-0.6602234244	8.659810066	1.0
128	-91.08300018	-5.167999744	22.60099792	0.3951679468	-0.6981480122	9.427386284	1.0
129	-91.08300018	-5.167999744	22.60099792	0.3435400128	-0.7402865887	10.29300213	1.0
[RightHandIndex2]
126	-36.76399994	0	0	-0.183590427	-1.292190671	16.17072868	1.0
127	-36.76399994	0	0	-0.1849675179	-1.296905994	16.23140335	1.0
128	-36.76399994	0	0	-0.1865701228	-1.30239296	16.30200195	1.0
129	-36.76399994	0	0	-0.188423261	-1.30871892	16.38342094	1.0
[RightHandIndex3]
126	-28.83100128	0	0	-0.03282141313	-0.5508263707	6.817157269	1.0
127	-28.83100128	0	0	-0.03341468796	-0.5557020903	6.877810955	1.0
128	-28.83100128	0	0	-0.03410518914	-0.561375618	6.948386192	1.0
129	-28.83100128	0	0	-0.03490635008	-0.5679178834	7.029773712	1.0
[RightHandIndex4]
126	-23.92700005	0	0	0	0	0	1.0
127	-23.92700005	0	0	0	0	0	1.0
128	-23.92700005	0	0	0	0	0	1.0
129	-23.92700005	0	0	0	0	0	1.0
[RightHandThumb1]
126	-24.64799881	-15.72700024	26.82600021	-2.034039974	0.370257616	-1.02431941	1.0
127	-24.64799881	-15.72700024	26.82600021	-2.069884777	0.4268892705	-0.7273851037	1.0
128	-24.64799881	-15.72700024	26.82600021	-2.109596491	0.4626565278	-0.2774442434	1.0
129	-24.64799881	-15.72700024	26.82600021	-2.152279854	0.4878958762	0.2653019726	1.0
[RightHandThumb2]
126	-32.29800034	-18.64699936	18.64699936	20.94366264	-22.7707119	-23.65564346	1.0
127	-32.29800034	-18.64699936	18.64699936	21.3416481	-23.08091736	-23.8497448	1.0
128	-32.29800034	-18.64699936	18.64699936	21.84290695	-23.47480202	-24.09391212	1.0
129	-32.29800034	-18.64699936	18.64699936	22.40661621	-23.9260025	-24.36993408	1.0
[RightHandThumb3]
126	-26.52600098	-15.31399918	15.31399918	-14.88922119	-6.182137966	-11.24267483	1.0
127	-26.52600098	-15.31399918	15.31399918	-14.95261765	-6.040606976	-11.2151413	1.0
128	-26.52600098	-15.31399918	15.31399918	-15.03330994	-5.863435745	-11.1808548	1.0
129	-26.52600098	-15.31399918	15.31399918	-15.12421894	-5.663722992	-11.14449978	1.0
[RightHandThumb4]
126	-19.54599953	-11.28499985	11.28499985	0	0	0	1.0
127	-19.54599953	-11.28499985	11.28499985	0	0	0	1.0
128	-19.54599953	-11.28499985	11.28499985	0	0	0	1.0
129	-19.54599953	-11.28499985	11.28499985	0	0	0	1.0
[LeftUpLeg]
126	82.07800293	-67.51699829	-15.99599934	-20.65494728	17.34133911	10.45348835	1.0
127	82.07800293	-67.51699829	-15.99599934	-19.62887001	17.22425842	10.28376102	1.0
128	82.07800293	-67.51699829	-15.99599934	-18.58340645	17.10743332	10.10631847	1.0
129	82.07800293	-67.51699829	-15.99599934	-17.53043365	16.9922123	9.924478531	1.0
[LeftLeg]
126	0	-443.7049866	2.845999956	23.1953392	-1.953786254	3.641125441	1.0
127	0	-443.7049866	2.845999956	22.56749916	-1.605517864	3.78685236	1.0
128	0	-443.7049866	2.845999956	21.93078232	-1.228097439	3.937006712	1.0
129	0	-443.7049866	2.845999956	21.28963089	-0.8340467215	4.08881712	1.0
[LeftFoot]
126	0	-444.2789917	-29.8219986	-1.578082919	0.4017424583	-8.027946472	1.0
127	0	-444.2789917	-29.8219986	-1.551306367	0.4028842449	-8.041861534	1.0
128	0	-444.2789917	-29.8219986	-1.519128084	0.4042123258	-8.051846504	1.0
129	0	-444.2789917	-29.8219986	-1.480569839	0.4058825076	-8.059096336	1.0
[LeftToeBase]
126	0	-87.28699493	107.1060028	-4.324356556	-6.06452204e-06	1.093350761e-06	1.0
127	0	-87.28699493	107.1060028	-4.368498802	-5.069905455e-06	1.212344387e-06	1.0
128	0	-87.28699493	107.1060028	-4.417959213	-3.744205287e-06	1.257465783e-06	1.0
129	0	-87.28699493	107.1060028	-4.470368862	-2.206771796e-06	1.249388561e-06	1.0
[RightUpLeg]
126	-82.07800293	-67.51699829	-15.99599934	-10.34238815	-8.656147003	9.424689293	1.0
127	-82.07800293	-67.51699829	-15.99599934	-9.590742111	-8.874346733	8.886250496	1.0
128	-82.07800293	-67.51699829	-15.99599934	-8.827429771	-9.092144966	8.32617569	1.0
129	-82.07800293	-67.51699829	-15.99599934	-8.05948925	-9.307823181	7.754799843	1.0
[RightLeg]
126	0	-443.7049866	2.861999989	17.18552971	-8.569422722	-6.41702652	1.0
127	0	-443.7049866	2.861999989	16.84566879	-8.625946045	-6.276928902	1.0
128	0	-443.7049866	2.861999989	16.49865341	-8.683613777	-6.131795883	1.0
129	0	-443.7049866	2.861999989	16.14587593	-8.74206543	-5.98345089	1.0
[RightFoot]
126	0	-444.2770081	-29.83799934	-7.67802906	-4.831490517	3.441342592	1.0
127	0	-444.2770081	-29.83799934	-7.68069315	-4.366103172	3.390108824	1.0
128	0	-444.2770081	-29.83799934	-7.684790611	-3.870782614	3.337370396	1.0
129	0	-444.2770081	-29.83799934	-7.687419415	-3.358776331	3.283558369	1.0
[RightToeBase]
126	0	-87.28699493	107.1060028	-6.981774807	1.13150063e-05	-2.256413381e-06	1.0
127	0	-87.28699493	107.1060028	-6.999089241	1.065205288e-05	-2.11016777e-06	1.0
128	0	-87.28699493	107.1060028	-7.019832611	9.177042557e-06	-1.914512723e-06	1.0
129	0	-87.28699493	107.1060028	-7.04253149	7.28978921e-06	-1.679043976e-06	1.0
[EndOfFile]
